<?xml version="1.0" encoding="UTF-8" standalone="no"?>
<svg width="40px" xmlns="http://www.w3.org/2000/svg" viewBox="0 0 40 36" version="1.1" height="36px">
    <title>Helm</title>
    <path d="M1447 2951 c-38 -46 -52 -119 -52 -277 l0 -142 -58 -7 c-90 -10 -219
-50 -310 -97 -45 -24 -85 -43 -89 -43 -3 0 -25 28 -48 62 -85 128 -186 219
-255 230 -67 11 -81 -32 -44 -132 25 -68 103 -186 158 -239 l40 -39 -51 -51
c-47 -47 -148 -181 -148 -195 0 -7 122 -81 132 -81 2 0 19 22 37 50 215 332
654 475 1033 337 187 -68 321 -179 464 -385 4 -6 134 69 134 77 0 14 -97 145
-147 198 l-49 53 34 32 c119 114 216 327 168 367 -57 47 -223 -81 -325 -251
l-22 -37 -87 44 c-97 49 -229 90 -319 100 l-58 7 0 147 c0 158 -15 236 -55
279 -28 30 -53 28 -83 -7z"/>
</svg>