<?xml version="1.0" encoding="UTF-8" standalone="no"?>
<svg width="40px" xmlns="http://www.w3.org/2000/svg" viewBox="0 0 40 36" version="1.1" height="36px">
    <defs>
        <linearGradient id="a" x2="50%" x1="50%" y2="100%">
            <stop stop-color="#F88A36" offset="0"/>
            <stop stop-color="#FD2020" offset="1"/>
        </linearGradient>
    </defs>
    <path d="M1447 2951 c-38 -46 -52 -119 -52 -277 l0 -142 -58 -7 c-90 -10 -219
-50 -310 -97 -45 -24 -85 -43 -89 -43 -3 0 -25 28 -48 62 -85 128 -186 219
-255 230 -67 11 -81 -32 -44 -132 25 -68 103 -186 158 -239 l40 -39 -51 -51
c-47 -47 -148 -181 -148 -195 0 -7 122 -81 132 -81 2 0 19 22 37 50 215 332
654 475 1033 337 187 -68 321 -179 464 -385 4 -6 134 69 134 77 0 14 -97 145
-147 198 l-49 53 34 32 c119 114 216 327 168 367 -57 47 -223 -81 -325 -251
l-22 -37 -87 44 c-97 49 -229 90 -319 100 l-58 7 0 147 c0 158 -15 236 -55
279 -28 30 -53 28 -83 -7z"/>
    <path d="M90 1480 l0 -380 100 0 100 0 0 150 0 150 115 0 115 0 0 -150 0 -150
105 0 105 0 0 380 0 380 -105 0 -105 0 0 -140 0 -140 -115 0 -115 0 0 140 0
140 -100 0 -100 0 0 -380z"/>
    <path d="M880 1480 l0 -380 260 0 260 0 0 85 0 85 -160 0 -160 0 0 65 0 65
130 0 130 0 0 80 0 80 -130 0 -130 0 0 65 0 65 150 0 150 0 0 85 0 85 -250 0
-250 0 0 -380z"/>
    <path d="M1530 1480 l0 -380 250 0 250 0 0 85 0 85 -150 0 -150 0 0 295 0 295
-100 0 -100 0 0 -380z"/>
    <path d="M2160 1480 l0 -380 90 0 90 0 0 133 c0 72 -7 175 -15 227 -8 52 -13
96 -11 98 2 1 9 -12 15 -30 6 -18 41 -108 77 -200 l66 -168 53 0 52 0 78 200
c43 110 79 199 80 198 2 -2 -3 -43 -11 -93 -7 -49 -14 -152 -14 -227 l0 -138
90 0 90 0 0 380 0 381 -101 -3 -102 -3 -73 -210 c-41 -115 -75 -214 -77 -219
-2 -5 -29 67 -62 160 -32 93 -67 193 -77 222 l-19 52 -110 0 -109 0 0 -380z"/>
    <path d="M703 955 c-28 -19 -55 -39 -58 -45 -7 -12 37 -70 103 -136 l41 -41
-40 -39 c-55 -53 -133 -171 -159 -240 -75 -201 102 -166 265 52 33 44 65 88
70 97 9 14 22 10 108 -32 102 -51 213 -86 307 -97 l55 -6 0 -147 c0 -164 16
-240 59 -280 78 -73 142 76 135 312 l-4 115 58 7 c90 10 218 50 316 100 l89
44 34 -52 c110 -172 258 -283 314 -236 48 40 -33 222 -159 357 -28 28 -45 52
-40 52 13 0 143 151 143 165 0 8 -85 71 -112 83 -4 2 -51 -41 -105 -96 -107
-107 -191 -164 -319 -214 -344 -133 -749 -30 -978 249 -28 34 -56 62 -61 62
-6 1 -34 -15 -62 -34z"/>
</svg>
